<svg xmlns="http://www.w3.org/2000/svg" xmlns:xlink="http://www.w3.org/1999/xlink" width="500" zoomAndPan="magnify" viewBox="0 0 375 374.999991" height="500" preserveAspectRatio="xMidYMid meet" version="1.0"><defs><g/><clipPath id="e4ff08e745"><path d="M 67 79 L 333 79 L 333 255.917969 L 67 255.917969 Z M 67 79 " clip-rule="nonzero"/></clipPath><clipPath id="8a724f7aba"><path d="M 23 37.5 L 353 37.5 L 353 159 L 23 159 Z M 23 37.5 " clip-rule="nonzero"/></clipPath></defs><g clip-path="url(#e4ff08e745)"><path fill="#f7892d" d="M 197.289062 79.445312 C 196.375 79.53125 195.285156 84.578125 198.292969 93.492188 C 199.425781 96.839844 201.300781 100.707031 204.394531 104.492188 C 206.789062 107.363281 209.839844 110.101562 213.542969 112.449219 C 216.855469 114.535156 220.605469 116.234375 224.699219 117.535156 C 232.328125 119.972656 240.695312 121.058594 249.890625 121.058594 C 257.820312 121.058594 266.101562 120.277344 274.773438 118.796875 C 282.179688 117.582031 290.503906 118.277344 297.738281 121.796875 C 303.796875 124.667969 309.328125 129.496094 313.078125 135.539062 C 316.433594 141.019531 318.480469 147.628906 318.089844 154.019531 C 317.828125 160.324219 314.90625 166.890625 310.289062 171.847656 C 305.234375 177.328125 298.347656 181.457031 290.722656 183.980469 C 282.921875 186.589844 274.292969 187.546875 265.183594 187.9375 C 264.226562 187.980469 263.265625 187.980469 262.308594 188.023438 C 253.722656 188.199219 244.832031 187.71875 236.117188 187.328125 C 226.269531 186.804688 216.683594 186.285156 206.746094 186.589844 C 203.261719 186.675781 199.90625 186.328125 196.898438 185.328125 C 194.152344 184.457031 191.539062 183.023438 189.226562 181.242188 C 184.128906 177.457031 180.292969 171.414062 176.980469 165.152344 C 173.234375 157.933594 170.359375 149.890625 167.65625 142.191406 C 164.824219 134.105469 162.339844 126.582031 158.808594 118.886719 C 154.320312 109.015625 148.308594 100.535156 140.984375 94.011719 C 133.796875 87.707031 125.691406 83.792969 118.019531 81.75 C 108.5625 79.269531 99.675781 79.316406 92.789062 80.097656 C 75.878906 81.925781 67.46875 86.578125 67.816406 87.75 C 68.125 88.925781 77.316406 86.621094 93.136719 86.925781 C 99.5 87.054688 107.5625 87.792969 115.320312 90.621094 C 121.59375 92.882812 128.085938 96.621094 133.535156 102.101562 C 139.242188 107.753906 143.773438 115.144531 147.390625 123.929688 C 150.269531 130.972656 152.273438 138.105469 154.886719 146.539062 C 157.328125 154.410156 160.160156 163.109375 164.214844 171.585938 C 167.65625 179.023438 172.582031 186.761719 180.03125 192.9375 C 183.5625 195.808594 187.660156 198.15625 192.191406 199.675781 C 197.117188 201.332031 202.214844 202.027344 207.226562 201.894531 C 216.332031 201.722656 225.484375 202.332031 235.421875 202.894531 C 244.136719 203.417969 253.375 203.894531 262.699219 203.722656 C 263.746094 203.722656 264.792969 203.679688 265.839844 203.632812 C 275.816406 203.332031 285.929688 202.027344 295.734375 198.808594 C 305.625 195.503906 314.644531 189.851562 321.617188 182.242188 C 328.546875 174.585938 332.601562 164.761719 332.949219 154.714844 C 333.210938 144.84375 330.160156 135.539062 325.105469 127.972656 C 319.570312 119.625 311.855469 113.40625 303.316406 109.710938 C 293.03125 105.316406 282.09375 104.839844 272.507812 106.925781 C 264.445312 108.710938 256.90625 109.882812 249.671875 110.320312 C 241.214844 110.796875 233.9375 110.449219 227.226562 108.882812 C 223.65625 108.058594 220.429688 106.925781 217.554688 105.535156 C 214.328125 103.96875 211.625 102.058594 209.40625 99.96875 C 206.527344 97.273438 204.4375 94.230469 202.910156 91.578125 C 198.988281 84.402344 198.160156 79.488281 197.289062 79.445312 Z M 201.605469 205.808594 C 187.746094 205.808594 176.503906 217.027344 176.503906 230.855469 C 176.503906 244.683594 187.746094 255.902344 201.605469 255.902344 C 215.460938 255.902344 226.703125 244.683594 226.703125 230.855469 C 226.703125 217.027344 215.460938 205.808594 201.605469 205.808594 Z M 300.222656 205.808594 C 286.363281 205.808594 275.121094 217.027344 275.121094 230.855469 C 275.121094 244.683594 286.363281 255.902344 300.222656 255.902344 C 314.078125 255.902344 325.324219 244.683594 325.324219 230.855469 C 325.324219 217.027344 314.078125 205.808594 300.222656 205.808594 Z M 201.558594 218.808594 C 208.269531 218.808594 213.71875 224.203125 213.71875 230.898438 C 213.71875 237.550781 208.316406 242.988281 201.605469 242.988281 C 194.9375 242.988281 189.488281 237.59375 189.488281 230.898438 C 189.488281 224.246094 194.894531 218.808594 201.558594 218.808594 Z M 300.179688 218.808594 C 306.890625 218.808594 312.335938 224.203125 312.335938 230.898438 C 312.335938 237.550781 306.933594 242.988281 300.222656 242.988281 C 293.554688 242.988281 288.105469 237.59375 288.105469 230.898438 C 288.105469 224.246094 293.511719 218.808594 300.179688 218.808594 Z M 300.179688 218.808594 " fill-opacity="1" fill-rule="nonzero"/></g><g clip-path="url(#8a724f7aba)"><path fill="#458217" d="M 111.003906 37.484375 C 110.351562 37.484375 109.742188 37.527344 109.085938 37.570312 C 103.074219 46.484375 102.679688 58.050781 108.039062 67.355469 C 113.097656 76.054688 122.378906 81.402344 132.445312 81.445312 C 131.835938 80.445312 131.226562 79.402344 130.613281 78.316406 C 123.640625 66.226562 118.628906 56.050781 119.457031 55.574219 C 120.285156 55.09375 126.648438 64.488281 133.621094 76.574219 C 134.230469 77.617188 134.839844 78.664062 135.410156 79.707031 C 140.417969 71.007812 140.417969 60.269531 135.410156 51.570312 C 130.398438 42.832031 121.070312 37.484375 111.003906 37.484375 Z M 68.472656 42.050781 C 68.078125 42.050781 67.730469 42.050781 67.382812 42.09375 C 62.195312 49.398438 61.671875 59.050781 65.988281 66.878906 C 70.039062 74.226562 77.710938 78.835938 86.078125 79.011719 C 85.597656 78.140625 85.117188 77.269531 84.597656 76.402344 C 78.972656 66.226562 75.007812 57.617188 75.707031 57.269531 C 76.402344 56.878906 81.546875 64.835938 87.125 75.011719 C 87.601562 75.921875 88.082031 76.792969 88.5625 77.664062 C 92.917969 70.488281 93.09375 61.574219 89.039062 54.226562 C 84.945312 46.703125 77.058594 42.050781 68.472656 42.050781 Z M 190.1875 49.265625 C 185.828125 53.222656 184.085938 59.3125 185.742188 64.964844 C 187.265625 70.269531 191.539062 74.3125 196.855469 75.664062 C 196.679688 75.054688 196.460938 74.402344 196.289062 73.75 C 194.152344 66.398438 192.84375 60.3125 193.367188 60.183594 C 193.890625 60.050781 196.027344 65.878906 198.160156 73.226562 C 198.335938 73.878906 198.511719 74.488281 198.683594 75.140625 C 202.519531 71.183594 203.914062 65.488281 202.386719 60.183594 C 200.730469 54.527344 195.980469 50.269531 190.1875 49.265625 Z M 241.523438 60.878906 C 240.867188 60.878906 240.257812 60.921875 239.605469 60.964844 C 233.589844 69.878906 233.199219 81.445312 238.558594 90.75 C 243.613281 99.449219 252.894531 104.796875 262.960938 104.839844 C 262.351562 103.839844 261.742188 102.796875 261.132812 101.707031 C 254.160156 89.621094 249.148438 79.445312 249.976562 78.96875 C 250.804688 78.488281 257.167969 87.882812 264.140625 99.96875 C 264.75 101.011719 265.359375 102.058594 265.925781 103.101562 C 270.9375 94.402344 270.9375 83.664062 265.925781 74.964844 C 260.957031 66.226562 251.632812 60.878906 241.523438 60.878906 Z M 171.796875 64.183594 C 163.472656 64.183594 155.804688 68.574219 151.574219 75.75 C 147.304688 82.96875 147.21875 91.882812 151.359375 99.1875 C 151.835938 98.316406 152.359375 97.449219 152.882812 96.578125 C 158.808594 86.578125 164.171875 78.75 164.867188 79.183594 C 165.566406 79.574219 161.335938 88.054688 155.410156 98.054688 C 154.886719 98.925781 154.363281 99.796875 153.886719 100.621094 C 162.296875 100.707031 170.054688 96.273438 174.324219 89.054688 C 178.898438 81.359375 178.636719 71.707031 173.671875 64.226562 C 173.058594 64.183594 172.449219 64.183594 171.796875 64.183594 Z M 213.195312 70.964844 C 208.839844 74.921875 207.09375 81.011719 208.75 86.664062 C 210.277344 91.96875 214.546875 96.011719 219.863281 97.359375 C 219.6875 96.75 219.472656 96.097656 219.296875 95.445312 C 217.160156 88.097656 215.855469 82.011719 216.378906 81.878906 C 216.898438 81.75 219.035156 87.578125 221.171875 94.925781 C 221.34375 95.578125 221.519531 96.1875 221.695312 96.839844 C 225.527344 92.882812 226.921875 87.183594 225.398438 81.878906 C 223.742188 76.226562 218.992188 72.007812 213.195312 70.964844 Z M 319.746094 73.878906 C 313.121094 79.921875 310.550781 89.230469 313.078125 97.796875 C 315.472656 105.839844 321.96875 111.972656 330.117188 113.929688 C 329.8125 112.972656 329.550781 112.015625 329.246094 111.058594 C 325.933594 99.925781 323.886719 90.664062 324.667969 90.445312 C 325.453125 90.230469 328.722656 99.101562 332.035156 110.230469 C 332.339844 111.230469 332.601562 112.1875 332.863281 113.101562 C 338.65625 107.015625 340.75 98.359375 338.351562 90.316406 C 335.824219 81.75 328.589844 75.359375 319.746094 73.878906 Z M 51.824219 76.835938 C 45.679688 76.835938 39.710938 78.835938 34.828125 82.488281 C 26.246094 88.96875 22.0625 99.753906 24.109375 110.320312 C 33.695312 115.1875 45.246094 114.1875 53.875 107.710938 C 61.933594 101.664062 66.117188 91.792969 64.898438 81.835938 C 63.984375 82.574219 62.980469 83.273438 62.023438 84.011719 C 50.867188 92.402344 41.324219 98.578125 40.757812 97.839844 C 40.1875 97.054688 48.773438 89.621094 59.929688 81.226562 C 60.933594 80.488281 61.890625 79.75 62.851562 79.054688 C 59.363281 77.574219 55.617188 76.835938 51.824219 76.835938 Z M 287.367188 79.921875 C 286.886719 79.921875 286.40625 79.96875 285.929688 80.011719 C 282.789062 85.011719 282.746094 91.316406 285.839844 96.316406 C 288.761719 101.011719 293.902344 103.796875 299.4375 103.621094 C 299.089844 103.058594 298.738281 102.535156 298.390625 101.925781 C 294.382812 95.402344 291.460938 89.925781 291.898438 89.664062 C 292.335938 89.402344 295.996094 94.445312 300.003906 100.925781 C 300.351562 101.492188 300.699219 102.058594 301.050781 102.621094 C 303.664062 97.796875 303.488281 91.882812 300.570312 87.230469 C 297.78125 82.664062 292.726562 79.878906 287.367188 79.921875 Z M 97.058594 93.1875 C 91.089844 93.1875 85.335938 95.578125 81.109375 99.796875 C 75.007812 105.882812 72.917969 114.929688 75.707031 123.101562 C 83.898438 125.886719 92.917969 123.796875 99.0625 117.710938 C 104.773438 112.015625 106.996094 103.710938 104.902344 95.925781 C 104.25 96.621094 103.550781 97.273438 102.855469 97.96875 C 94.925781 105.882812 88.039062 111.839844 87.515625 111.320312 C 86.949219 110.753906 92.964844 103.925781 100.894531 96.011719 C 101.589844 95.316406 102.289062 94.621094 102.941406 93.96875 C 101.023438 93.445312 99.0625 93.1875 97.058594 93.1875 Z M 178.679688 104.011719 C 172.796875 104.449219 167.65625 108.144531 165.433594 113.625 C 163.386719 118.710938 164.171875 124.539062 167.570312 128.886719 C 167.785156 128.277344 168.046875 127.667969 168.308594 127.058594 C 171.1875 119.972656 173.886719 114.40625 174.410156 114.582031 C 174.890625 114.796875 172.972656 120.667969 170.097656 127.753906 C 169.835938 128.363281 169.574219 128.972656 169.355469 129.582031 C 174.804688 128.800781 179.464844 125.191406 181.515625 120.101562 C 183.738281 114.667969 182.648438 108.40625 178.679688 104.011719 Z M 123.640625 105.492188 C 120.113281 105.492188 116.667969 106.753906 113.925781 108.96875 C 114.054688 114.839844 117.542969 120.144531 122.945312 122.625 C 127.957031 124.929688 133.839844 124.363281 138.328125 121.191406 C 137.71875 120.929688 137.152344 120.667969 136.542969 120.363281 C 129.570312 117.1875 124.121094 114.1875 124.339844 113.710938 C 124.558594 113.230469 130.398438 115.449219 137.324219 118.625 C 137.9375 118.886719 138.546875 119.1875 139.113281 119.449219 C 138.589844 113.972656 135.191406 109.1875 130.179688 106.882812 C 128.085938 105.96875 125.863281 105.492188 123.640625 105.492188 Z M 198.902344 110.144531 C 198.160156 110.144531 197.375 110.1875 196.636719 110.320312 C 190.796875 111.1875 185.960938 115.277344 184.171875 120.886719 C 187.484375 125.753906 193.324219 128.277344 199.164062 127.453125 C 204.609375 126.667969 209.230469 123.015625 211.277344 117.886719 C 210.625 117.972656 209.972656 118.101562 209.316406 118.1875 C 201.734375 119.277344 195.546875 119.753906 195.460938 119.234375 C 195.371094 118.710938 201.472656 117.40625 209.054688 116.277344 C 209.710938 116.1875 210.363281 116.101562 211.015625 116.015625 C 208.097656 112.277344 203.609375 110.144531 198.902344 110.144531 Z M 348.59375 115.710938 C 342.710938 116.144531 337.570312 119.839844 335.347656 125.320312 C 333.296875 130.40625 334.082031 136.234375 337.480469 140.582031 C 337.699219 139.972656 337.960938 139.367188 338.222656 138.757812 C 341.097656 131.667969 343.800781 126.101562 344.324219 126.277344 C 344.800781 126.496094 342.886719 132.363281 340.007812 139.453125 C 339.746094 140.0625 339.484375 140.671875 339.269531 141.277344 C 344.714844 140.496094 349.378906 136.886719 351.425781 131.800781 C 353.648438 126.320312 352.515625 120.101562 348.59375 115.710938 Z M 230.976562 123.277344 C 225.003906 123.277344 219.253906 125.667969 215.027344 129.886719 C 208.925781 135.972656 206.832031 145.019531 209.621094 153.195312 C 217.816406 155.976562 226.835938 153.890625 232.980469 147.800781 C 238.6875 142.105469 240.910156 133.800781 238.820312 126.015625 C 238.167969 126.710938 237.46875 127.363281 236.773438 128.058594 C 228.839844 135.972656 221.953125 141.929688 221.433594 141.410156 C 220.867188 140.84375 226.878906 134.015625 234.8125 126.101562 C 235.507812 125.40625 236.207031 124.710938 236.859375 124.058594 C 234.941406 123.539062 232.9375 123.277344 230.976562 123.277344 Z M 263.484375 125.972656 C 258.039062 125.972656 253.027344 128.84375 250.238281 133.453125 C 247.1875 138.496094 247.316406 144.84375 250.542969 149.757812 C 256.425781 150.238281 262.089844 147.367188 265.097656 142.324219 C 267.929688 137.582031 268.015625 131.710938 265.359375 126.929688 C 265.011719 127.496094 264.707031 128.058594 264.355469 128.625 C 260.433594 135.191406 256.859375 140.277344 256.425781 140.019531 C 255.988281 139.757812 258.777344 134.191406 262.746094 127.667969 C 263.09375 127.101562 263.441406 126.539062 263.789062 125.972656 C 263.660156 125.972656 263.574219 125.972656 263.484375 125.972656 Z M 293.292969 127.453125 C 287.324219 127.453125 281.570312 129.84375 277.34375 134.0625 C 271.242188 140.148438 269.152344 149.191406 271.941406 157.367188 C 280.132812 160.152344 289.152344 158.0625 295.296875 151.976562 C 301.007812 146.28125 303.230469 137.972656 301.136719 130.191406 C 300.484375 130.886719 299.785156 131.539062 299.089844 132.234375 C 291.15625 140.148438 284.273438 146.105469 283.75 145.582031 C 283.183594 145.019531 289.195312 138.191406 297.128906 130.277344 C 297.824219 129.582031 298.523438 128.886719 299.175781 128.234375 C 297.300781 127.710938 295.296875 127.453125 293.292969 127.453125 Z M 293.292969 127.453125 " fill-opacity="1" fill-rule="nonzero"/></g><g fill="#f7892d" fill-opacity="1"><g transform="translate(40.571929, 303.745952)"><g><path d="M 32.296875 -37.75 L 42.171875 -37.75 C 42.566406 -37.75 42.90625 -37.601562 43.1875 -37.3125 C 43.476562 -37.019531 43.625 -36.679688 43.625 -36.296875 L 43.625 -1.453125 C 43.625 -1.054688 43.476562 -0.710938 43.1875 -0.421875 C 42.90625 -0.140625 42.566406 0 42.171875 0 L 32.40625 0 C 32.007812 0 31.664062 -0.140625 31.375 -0.421875 C 31.09375 -0.710938 30.953125 -1.054688 30.953125 -1.453125 L 30.953125 -18.171875 L 27.015625 -10.40625 C 26.796875 -9.976562 26.46875 -9.644531 26.03125 -9.40625 C 25.601562 -9.175781 25.175781 -9.0625 24.75 -9.0625 L 21.078125 -9.0625 C 20.472656 -9.0625 19.972656 -9.222656 19.578125 -9.546875 C 19.179688 -9.867188 18.925781 -10.15625 18.8125 -10.40625 L 14.875 -18.171875 L 14.875 -1.453125 C 14.875 -1.054688 14.726562 -0.710938 14.4375 -0.421875 C 14.15625 -0.140625 13.816406 0 13.421875 0 L 3.671875 0 C 3.273438 0 2.929688 -0.140625 2.640625 -0.421875 C 2.347656 -0.710938 2.203125 -1.054688 2.203125 -1.453125 L 2.203125 -36.296875 C 2.203125 -36.679688 2.347656 -37.019531 2.640625 -37.3125 C 2.929688 -37.601562 3.273438 -37.75 3.671875 -37.75 L 13.53125 -37.75 C 14.539062 -37.75 15.316406 -37.265625 15.859375 -36.296875 L 22.921875 -23.34375 L 29.984375 -36.296875 C 30.523438 -37.265625 31.296875 -37.75 32.296875 -37.75 Z M 32.296875 -37.75 "/></g></g></g><g fill="#f7892d" fill-opacity="1"><g transform="translate(90.174155, 303.745952)"><g><path d="M 42.96875 -22.15625 L 42.96875 -15.578125 C 42.96875 -11.878906 42.066406 -8.789062 40.265625 -6.3125 C 38.472656 -3.832031 36.117188 -2.066406 33.203125 -1.015625 C 30.296875 0.0234375 26.863281 0.546875 22.90625 0.546875 C 18.957031 0.546875 15.523438 0.0234375 12.609375 -1.015625 C 9.703125 -2.066406 7.347656 -3.832031 5.546875 -6.3125 C 3.753906 -8.789062 2.859375 -11.914062 2.859375 -15.6875 L 2.859375 -22.046875 C 2.859375 -27.484375 4.71875 -31.546875 8.4375 -34.234375 C 12.15625 -36.929688 16.976562 -38.28125 22.90625 -38.28125 C 28.84375 -38.28125 33.671875 -36.929688 37.390625 -34.234375 C 41.109375 -31.546875 42.96875 -27.519531 42.96875 -22.15625 Z M 17.421875 -23.1875 L 17.421875 -14.5625 C 17.421875 -13.082031 17.910156 -11.945312 18.890625 -11.15625 C 19.878906 -10.363281 21.21875 -9.96875 22.90625 -9.96875 C 24.601562 -9.96875 25.945312 -10.375 26.9375 -11.1875 C 27.925781 -12 28.421875 -13.140625 28.421875 -14.609375 L 28.421875 -23.125 C 28.421875 -24.601562 27.925781 -25.742188 26.9375 -26.546875 C 25.945312 -27.359375 24.601562 -27.765625 22.90625 -27.765625 C 21.21875 -27.765625 19.878906 -27.367188 18.890625 -26.578125 C 17.910156 -25.785156 17.421875 -24.65625 17.421875 -23.1875 Z M 17.421875 -23.1875 "/></g></g></g><g fill="#f7892d" fill-opacity="1"><g transform="translate(139.776381, 303.745952)"><g><path d="M 29.765625 -37.75 L 39.796875 -37.75 C 40.191406 -37.75 40.53125 -37.601562 40.8125 -37.3125 C 41.101562 -37.019531 41.25 -36.679688 41.25 -36.296875 L 41.25 -1.453125 C 41.25 -1.054688 41.101562 -0.710938 40.8125 -0.421875 C 40.53125 -0.140625 40.191406 0 39.796875 0 L 31.109375 0 C 30.242188 0 29.523438 -0.375 28.953125 -1.125 L 17.203125 -16.125 L 17.203125 -1.453125 C 17.203125 -1.054688 17.054688 -0.710938 16.765625 -0.421875 C 16.484375 -0.140625 16.144531 0 15.75 0 L 5.71875 0 C 5.320312 0 4.976562 -0.140625 4.6875 -0.421875 C 4.40625 -0.710938 4.265625 -1.054688 4.265625 -1.453125 L 4.265625 -36.296875 C 4.265625 -36.679688 4.40625 -37.019531 4.6875 -37.3125 C 4.976562 -37.601562 5.320312 -37.75 5.71875 -37.75 L 14.453125 -37.75 C 15.316406 -37.75 16.015625 -37.390625 16.546875 -36.671875 L 28.3125 -20.4375 L 28.3125 -36.296875 C 28.3125 -36.679688 28.453125 -37.019531 28.734375 -37.3125 C 29.023438 -37.601562 29.367188 -37.75 29.765625 -37.75 Z M 29.765625 -37.75 "/></g></g></g><g fill="#f7892d" fill-opacity="1"><g transform="translate(189.378602, 303.745952)"><g><path d="M 37.28125 -3.390625 C 33.738281 -0.765625 28.945312 0.546875 22.90625 0.546875 C 16.875 0.546875 12.085938 -0.765625 8.546875 -3.390625 C 5.003906 -6.015625 3.234375 -10.113281 3.234375 -15.6875 L 3.234375 -36.296875 C 3.234375 -36.679688 3.375 -37.019531 3.65625 -37.3125 C 3.945312 -37.601562 4.289062 -37.75 4.6875 -37.75 L 15.953125 -37.75 C 16.347656 -37.75 16.691406 -37.601562 16.984375 -37.3125 C 17.273438 -37.019531 17.421875 -36.679688 17.421875 -36.296875 L 17.421875 -14.828125 C 17.421875 -13.359375 17.910156 -12.226562 18.890625 -11.4375 C 19.878906 -10.644531 21.21875 -10.25 22.90625 -10.25 C 24.601562 -10.25 25.945312 -10.644531 26.9375 -11.4375 C 27.925781 -12.226562 28.421875 -13.359375 28.421875 -14.828125 L 28.421875 -36.296875 C 28.421875 -36.679688 28.5625 -37.019531 28.84375 -37.3125 C 29.132812 -37.601562 29.476562 -37.75 29.875 -37.75 L 41.140625 -37.75 C 41.535156 -37.75 41.875 -37.601562 42.15625 -37.3125 C 42.445312 -37.019531 42.59375 -36.679688 42.59375 -36.296875 L 42.59375 -15.6875 C 42.59375 -10.113281 40.820312 -6.015625 37.28125 -3.390625 Z M 37.28125 -3.390625 "/></g></g></g><g fill="#f7892d" fill-opacity="1"><g transform="translate(238.980832, 303.745952)"><g><path d="M 18.875 -10.515625 L 40.390625 -10.515625 C 40.785156 -10.515625 41.125 -10.367188 41.40625 -10.078125 C 41.695312 -9.796875 41.84375 -9.457031 41.84375 -9.0625 L 41.84375 -1.453125 C 41.84375 -1.054688 41.695312 -0.710938 41.40625 -0.421875 C 41.125 -0.140625 40.785156 0 40.390625 0 L 6.3125 0 C 5.914062 0 5.570312 -0.140625 5.28125 -0.421875 C 5 -0.710938 4.859375 -1.054688 4.859375 -1.453125 L 4.859375 -36.296875 C 4.859375 -36.679688 5 -37.019531 5.28125 -37.3125 C 5.570312 -37.601562 5.914062 -37.75 6.3125 -37.75 L 39.84375 -37.75 C 40.238281 -37.75 40.578125 -37.601562 40.859375 -37.3125 C 41.148438 -37.019531 41.296875 -36.679688 41.296875 -36.296875 L 41.296875 -28.6875 C 41.296875 -28.289062 41.148438 -27.945312 40.859375 -27.65625 C 40.578125 -27.375 40.238281 -27.234375 39.84375 -27.234375 L 18.875 -27.234375 L 18.875 -23.828125 L 36.875 -23.828125 C 37.269531 -23.828125 37.613281 -23.679688 37.90625 -23.390625 C 38.195312 -23.109375 38.34375 -22.769531 38.34375 -22.375 L 38.34375 -15.375 C 38.34375 -14.976562 38.195312 -14.632812 37.90625 -14.34375 C 37.613281 -14.050781 37.269531 -13.90625 36.875 -13.90625 L 18.875 -13.90625 Z M 18.875 -10.515625 "/></g></g></g><g fill="#f7892d" fill-opacity="1"><g transform="translate(288.583062, 303.745952)"><g><path d="M 29.765625 -37.75 L 40.875 -37.75 C 41.269531 -37.75 41.609375 -37.601562 41.890625 -37.3125 C 42.179688 -37.019531 42.328125 -36.679688 42.328125 -36.296875 L 42.328125 -1.453125 C 42.328125 -1.054688 42.179688 -0.710938 41.890625 -0.421875 C 41.609375 -0.140625 41.269531 0 40.875 0 L 29.765625 0 C 29.367188 0 29.023438 -0.140625 28.734375 -0.421875 C 28.453125 -0.710938 28.3125 -1.054688 28.3125 -1.453125 L 28.3125 -12.9375 L 17.53125 -12.9375 L 17.53125 -1.453125 C 17.53125 -1.054688 17.382812 -0.710938 17.09375 -0.421875 C 16.800781 -0.140625 16.457031 0 16.0625 0 L 4.953125 0 C 4.566406 0 4.226562 -0.132812 3.9375 -0.40625 C 3.644531 -0.675781 3.5 -1.023438 3.5 -1.453125 L 3.5 -36.296875 C 3.5 -36.679688 3.644531 -37.019531 3.9375 -37.3125 C 4.226562 -37.601562 4.566406 -37.75 4.953125 -37.75 L 16.0625 -37.75 C 16.457031 -37.75 16.800781 -37.601562 17.09375 -37.3125 C 17.382812 -37.019531 17.53125 -36.679688 17.53125 -36.296875 L 17.53125 -25.234375 L 28.3125 -25.234375 L 28.3125 -36.296875 C 28.3125 -36.679688 28.453125 -37.019531 28.734375 -37.3125 C 29.023438 -37.601562 29.367188 -37.75 29.765625 -37.75 Z M 29.765625 -37.75 "/></g></g></g></svg>